Pedal_Stiffness1_states
version=1
nRows=32
nColumns=9
inDegrees=yes

# SIMM Motion File Header:
name Pedal_Stiffness1_states
datacolumns 9
datarows 32
otherdata 1
range 0.00000000 0.15303105
endheader
time	B_Pedal_tilt	G_Pedal_tilt	Tester_Sld-B_Pedal	Tester_Sld-G_Pedal	B_Pedal_tilt_u	G_Pedal_tilt_u	Tester_Sld-B_Pedal_u	Tester_Sld-G_Pedal_u
      0.00000000	      0.00000000	      0.00000000	      0.00000000	      0.00000000	      0.00000000	      0.00000000	      0.00000000	      0.00000000
      0.00553861	     -0.00163292	     -0.00156515	     -0.00001431	      0.00004459	     -0.58306265	     -0.54840905	     -0.00503902	      0.01612794
      0.01010621	     -0.00532851	     -0.00496775	     -0.00004570	      0.00014886	     -1.02391133	     -0.92060584	     -0.00861760	      0.02954377
      0.01355700	     -0.00933164	     -0.00842022	     -0.00007959	      0.00026840	     -1.28271761	     -1.05023566	     -0.01097533	      0.03974853
      0.01700779	     -0.01410641	     -0.01205641	     -0.00012110	      0.00042325	     -1.47560307	     -1.04640722	     -0.01303535	      0.05001282
      0.02045858	     -0.01945200	     -0.01560875	     -0.00016921	      0.00061363	     -1.61315774	     -1.00837104	     -0.01479767	      0.06033665
      0.03771254	     -0.04790243	     -0.02991964	     -0.00047272	      0.00210556	     -1.46560433	     -0.62009853	     -0.01914381	      0.11284892
      0.04373286	     -0.05579433	     -0.03321420	     -0.00058772	      0.00284107	     -1.13852916	     -0.47673890	     -0.01890880	      0.13152201
      0.04964305	     -0.06136335	     -0.03565813	     -0.00069662	      0.00367299	     -0.73648032	     -0.35370510	     -0.01779670	      0.15002979
      0.05464858	     -0.06413159	     -0.03718943	     -0.00078190	      0.00446203	     -0.36809542	     -0.25598031	     -0.01617183	      0.16469850
      0.05879516	     -0.06502737	     -0.03803260	     -0.00084533	      0.00516171	     -0.06598335	     -0.14268082	     -0.01435142	      0.17149783
      0.06294173	     -0.06470605	     -0.03831376	     -0.00090032	      0.00587265	      0.21669079	      0.01249931	     -0.01210116	      0.16996999
      0.06619605	     -0.06366788	     -0.03804754	     -0.00093641	      0.00641513	      0.41791102	      0.15373189	     -0.01003405	      0.16244400
      0.06899078	     -0.06227916	     -0.03743011	     -0.00096172	      0.00685397	      0.57296058	      0.29133504	     -0.00804754	      0.15066213
      0.07178551	     -0.06048277	     -0.03640392	     -0.00098121	      0.00725204	      0.70931070	      0.44481610	     -0.00586577	      0.13332942
      0.07536879	     -0.05767152	     -0.03444670	     -0.00099680	      0.00767962	      0.85389182	      0.64665875	     -0.00278273	      0.10419090
      0.08001998	     -0.05336640	     -0.03087244	     -0.00099953	      0.00805950	      0.98666135	      0.88172572	      0.00169789	      0.05790863
      0.08467117	     -0.04859416	     -0.02636758	     -0.00098017	      0.00821196	      1.05448355	      1.03818267	      0.00671935	      0.00753614
      0.09089101	     -0.04200818	     -0.01972540	     -0.00091536	      0.00805854	      1.04459033	      1.05878181	      0.01427954	     -0.05505455
      0.09558367	     -0.03726696	     -0.01503119	     -0.00083369	      0.00770868	      0.96673315	      0.92140836	      0.02062356	     -0.09227562
      0.10027632	     -0.03301584	     -0.01123932	     -0.00072094	      0.00720992	      0.83736639	      0.68104713	      0.02751810	     -0.11839960
      0.10594038	     -0.02884151	     -0.00839743	     -0.00053981	      0.00648595	      0.62868950	      0.31457351	      0.03657310	     -0.13447618
      0.11160444	     -0.02596072	     -0.00767326	     -0.00030513	      0.00571274	      0.38473456	     -0.05180997	      0.04643015	     -0.13667535
      0.11726850	     -0.02450213	     -0.00885691	     -0.00001233	      0.00495670	      0.13071512	     -0.35190396	      0.05708923	     -0.12873252
      0.12198216	     -0.02436721	     -0.01096494	      0.00027889	      0.00437887	     -0.07075505	     -0.53162921	      0.06657122	     -0.11568646
      0.12669581	     -0.02513560	     -0.01376738	      0.00061613	      0.00387048	     -0.25103130	     -0.64667883	      0.07660867	     -0.09976283
      0.13140946	     -0.02668802	     -0.01696094	      0.00100198	      0.00343947	     -0.40226850	     -0.69848497	      0.08720158	     -0.08307963
      0.13612311	     -0.02887280	     -0.02027112	      0.00143907	      0.00308744	     -0.51851933	     -0.69880146	      0.09834996	     -0.06626653
      0.14318475	     -0.03294366	     -0.02501890	      0.00219549	      0.00270901	     -0.61874105	     -0.63611776	      0.11603134	     -0.04087050
      0.14670523	     -0.03514217	     -0.02717561	      0.00261881	      0.00258756	     -0.62200639	     -0.58784296	      0.12406285	     -0.02811655
      0.14986814	     -0.03705021	     -0.02895923	      0.00301906	      0.00251682	     -0.57595383	     -0.53942107	      0.12847558	     -0.01660516
      0.15303105	     -0.03872548	     -0.03058547	      0.00342726	      0.00248257	     -0.47217832	     -0.48868640	      0.12876621	     -0.00504374
